# xmcd CD database file
#
# Track frame offsets:
#	150
#	17101
#	48894
#	73715
#	93684
#	124507
#	140301
#	158331
#	179149
#
# Disc length: 3026 seconds
#
# Revision: 0
# Processed by: cddbd v1.4PL0 Copyright (c) Steve Scherf et al.
# Submitted via: CDex 1.50Beta6
#
DISCID=740bd009
DTITLE=Ernestine Anderson - I Love Being Here With You [CD1]
DYEAR=2002
DGENRE=Jazz
TTITLE0=I Love Being Here With You
TTITLE1=All Blues
TTITLE2=Down Home Blues
TTITLE3=As long As I Live
TTITLE4=Please Send Me Someone To Love
TTITLE5=I Let A Song Go Out Of My My Heart
TTITLE6=Spring is Here
TTITLE7=Street Of Dreams
TTITLE8=Never Make Your Move Too Soon
EXTD=YEAR: 2002
EXTT0=
EXTT1=
EXTT2=
EXTT3=
EXTT4=
EXTT5=
EXTT6=
EXTT7=
EXTT8=
PLAYORDER=
